<?xml version="1.0" encoding="UTF-8"?>
<svg id="Capa_1" xmlns="http://www.w3.org/2000/svg" version="1.1" viewBox="0 0 32 32">
  <!-- Generator: Adobe Illustrator 30.0.0, SVG Export Plug-In . SVG Version: 2.1.1 Build 123)  -->
  <defs>
    <style>
      .st0 {
        fill: #002ee6;
      }

      .st1 {
        fill: #fff;
      }

      .st2 {
        fill: #00ff92;
      }
    </style>
  </defs>
  <rect class="st0" x="-.8" y="-.9" width="33.5" height="33.5"/>
  <g>
    <path class="st1" d="M26.8,19.4l-10.6,5.3c-.1,0-.3,0-.4,0l-10.7-5.3c-.3-.2-.3-.7,0-.8l5.1-2.5,5.6,2.8c.1,0,.2,0,.3,0l5.7-2.8,5.1,2.5c.3.2.3.7,0,.8"/>
    <path class="st2" d="M27,13.4l-5.2,2.6-5.6-2.8c-.1,0-.3,0-.4,0l-5.6,2.8-5.1-2.5c-.3-.2-.3-.7,0-.8l10.7-5.4c.1,0,.2,0,.3,0l10.9,5.4c.3.2.3.6,0,.7"/>
  </g>
</svg>