<?xml version="1.0" encoding="UTF-8"?>
<svg id="Capa_1" xmlns="http://www.w3.org/2000/svg" version="1.1" viewBox="0 0 425 113">
  <!-- Generator: Adobe Illustrator 30.0.0, SVG Export Plug-In . SVG Version: 2.1.1 Build 123)  -->
  <defs>
    <style>
      .st0 {
        fill: #3bccbe;
      }

      .st0, .st1 {
        fill-rule: evenodd;
      }

      .st1 {
        fill: #081798;
      }
    </style>
  </defs>
  <path class="st1" d="M293.39,76.93v-8.86l8.78-31.39h32.04l-2.3,8.28h-20.09l-2.23,7.92h18.79l-2.38,8.28h-18.79l-2.16,7.85h20.16l-2.23,7.92s-29.59,0-29.59,0ZM293.39,51.44c.22-.22.43-.43.58-.65.72-1.01,1.22-2.02,1.51-3.17,0,0,0-.07.07-.07v-.22s0-.07.07-.07l-.07-.07s.02-.09.07-.14v-.07s.02-.09.07-.14c.22-1.37.29-2.59.07-3.67-.22-1.01-.65-1.87-1.3-2.59-.36-.29-.72-.65-1.08-.86v11.74-.02ZM293.39,39.7v11.74c-.58.72-1.22,1.37-2.02,1.94-1.01.79-2.16,1.37-3.38,1.8-1.22.5-2.52.72-3.96.86v.07h.14c1.08.22,2.16.65,3.17,1.22.94.5,1.87,1.15,2.74,1.94.72.72,1.22,1.66,1.44,2.81.22,1.08.14,2.45-.29,3.96-.58,1.94-1.37,3.67-2.52,5.04-1.08,1.37-2.52,2.52-4.18,3.38-1.66.79-3.67,1.44-5.9,1.8-1.8.36-3.74.5-5.83.58v-7.85c.79.07,1.51,0,2.16-.14s1.22-.36,1.73-.72c.5-.29.94-.65,1.3-1.01s.58-.79.79-1.15c0,0,0-.07.07-.07v-.07s.07-.02.07-.07c0-.07.07-.14.07-.14v-.14c.07-.07.07-.14.14-.14v-.29c.07,0,.07-.07.07-.07v-.29c0-.07.07-.14.07-.22v-.72c-.07-.36-.14-.72-.29-1.01-.22-.36-.43-.65-.72-1.01-.29-.29-.65-.5-1.15-.65-.5-.22-1.08-.29-1.73-.29h-2.59v-8.35h4.03c.86.07,1.66,0,2.3-.14.72-.22,1.3-.43,1.8-.79.43-.29.86-.72,1.22-1.22.29-.43.58-1.01.72-1.73.22-.5.22-1.01.14-1.51-.14-.43-.36-.86-.65-1.22-.36-.43-.79-.72-1.37-.94-.58-.14-1.3-.29-2.02-.29l-5.9-.07-.29,1.15v-9h9.29c.36.07.79.14,1.3.14.58,0,1.22,0,1.94.07.65,0,1.37.14,2.16.22.72.14,1.44.36,2.16.58.94.22,1.8.65,2.59,1.15.43.22.79.5,1.15.86h.03ZM293.39,68.07l-2.45,8.86h2.45v-8.86ZM272.8,36.68v9l-1.87,6.77h1.87v8.35l-4.25-.07-2.23,8.28h6.48v7.85c-.58.07-1.22.07-1.87.07h-15.12v-12.74l7.63-27.5h9.36ZM255.81,48.42l3.53-11.74h-3.53v11.74ZM255.81,36.68v11.74l-8.64,28.51h-9.14c-.5,0-.94-.07-1.3-.14v-8.06l9.72-32.04h9.36ZM255.81,64.18l-3.53,12.74h3.53v-12.74h0ZM236.73,49.42c.29-.65.58-1.37.79-2.09.58-2.09.65-3.82.22-5.26-.22-.65-.58-1.22-1.01-1.73v9.07h0ZM236.73,40.35v9.07c-.29.79-.72,1.51-1.15,2.16-.79,1.22-1.8,2.16-2.95,2.88-1.22.79-2.45,1.37-3.74,1.87-1.3.43-2.66.72-4.03,1.01,2.02.07,3.53.43,4.61,1.08s1.66,1.66,1.8,2.88c.14,1.3.14,2.59.14,3.96-.07,1.37-.22,2.81-.43,4.32v.07s-.07.09-.07.14v.22c-.14.58-.22,1.22-.36,1.8-.14.65-.22,1.22-.29,1.87-.07.58-.14,1.15-.14,1.73,0,.5.07,1.01.14,1.51h-11.59v-6.84c.14-1.01.29-2.02.36-2.95.14-1.01.14-1.94.07-2.81-.07-.58-.22-1.08-.43-1.44v-9.07h.29l1.08-.22c.36-.07.72-.14,1.01-.29.36-.07.72-.22,1.08-.36.65-.29,1.15-.72,1.66-1.3.43-.58.79-1.3,1.01-2.16.22-.79.22-1.44.07-1.94-.14-.58-.43-1.08-1.01-1.44-.5-.29-1.15-.58-1.87-.72-.65-.22-1.44-.29-2.3-.29l-1.01-.07v-8.35h5.11c.07.07.14.07.22.07h.86c1.94.07,3.74.29,5.4.65s3.24.86,4.68,1.58c.72.36,1.37.79,1.8,1.37h-.02ZM236.73,68.72l-.5,1.73c-.94,3.31-1.08,5.69.5,6.34v-8.06h0ZM218.66,36.68v8.35l-3.89-.07-2.38,8.78h4.46c.07.07.14.14.22.14h.86c.22,0,.43,0,.72-.07v9.07c-.14-.22-.36-.43-.58-.58-.58-.43-1.44-.65-2.59-.65l-5.26-.14-4.18,15.41h-11.74l11.02-40.25h13.34ZM218.66,70.09c0,.07-.07.07-.07.14,0,.14-.07.22-.07.36,0,.07-.07.22-.07.29s0,.07-.07.14v.29c-.07.07-.07.14-.07.22-.07.5-.22,1.01-.29,1.51-.14.5-.22,1.01-.29,1.51-.07.43-.14.86-.14,1.3s.07.79.14,1.08h.94v-6.84h0ZM173.8,69.44v-8.28h4.75l-.43-16.2-4.32,7.78v-15.12l.58-.94h12.82l4.75,40.25h-11.95l-.65-7.49h-5.55ZM173.8,37.62v15.12l-4.75,8.42h4.75v8.28h-9.36l-4.25,7.49h-7.78v-5.4l21.38-33.91h0ZM152.42,49.42l2.88.07c.5-2.02.58-3.82.36-5.4-.29-1.66-.94-3.1-2.02-4.39-.36-.43-.79-.79-1.22-1.15v10.87ZM152.42,38.55v10.87l-8.42-.07c.14-.72.14-1.37.07-2.02-.14-.65-.43-1.22-.94-1.8-.36-.58-1.01-1.01-1.73-1.3-.79-.29-1.66-.43-2.74-.43-1.58,0-2.95.29-4.18.94-1.15.65-2.16,1.58-2.88,2.81-.72,1.3-1.37,2.59-2.02,4.03-.58,1.37-1.08,2.81-1.51,4.32,0,.07-.07.22-.07.29v.14c-.07.07-.07.14-.07.29-.07.07-.07.14-.07.22s0,.14-.07.22c0,.07,0,.14-.07.22v.29c0,.07-.07.14-.07.22-.36,1.87-.58,3.53-.72,4.97-.07,1.51,0,2.81.29,3.96.22,1.08.72,1.94,1.58,2.45.79.58,1.87.86,3.17.86,1.15,0,2.16-.14,3.17-.5.94-.29,1.73-.79,2.38-1.37.72-.65,1.3-1.3,1.8-2.02.43-.72.72-1.44.94-2.23l11.38-.14c-.07.36-.14.65-.29.94-.07.36-.22.65-.29.94l-.43.86c-.07.29-.22.58-.36.94-.72,1.3-1.58,2.59-2.74,3.82-1.15,1.15-2.45,2.3-4.03,3.38s-3.46,1.87-5.54,2.38c-2.16.58-4.54.79-7.13.79-3.53,0-6.48-.43-8.78-1.3-2.38-.86-4.03-2.23-5.11-4.03-.94-1.58-1.51-3.31-1.8-5.4v-5.33c.14-1.15.36-2.3.65-3.6,0-.07.07-.14.07-.22,0-.14.07-.22.07-.36.07-.07.07-.22.07-.29s.07-.14.07-.22c.94-3.82,2.23-7.13,3.82-9.86,1.58-2.66,3.46-4.9,5.69-6.48,2.16-1.58,4.54-2.81,7.13-3.6,2.52-.79,5.18-1.22,8.06-1.22,3.31,0,5.98.29,8.14.94,1.37.43,2.52,1.01,3.53,1.73h0l-.02-.03ZM152.42,71.53l-3.46,5.4h3.46v-5.4h0ZM115.12,39.85l.14-.72h-.14v.72ZM115.12,39.13v.72l-8.21,37.94h-11.59l-7.7-27.72-5.98,27.72h-6.91l8.35-38.66h10.87l8.14,28.3,6.12-28.3s6.91,0,6.91,0ZM115.12,61.74c-.14,1.58-.22,3.1-.07,4.46,0,.29.07.58.07.86v-5.33h0ZM55.36,69.22v-6.05h5.9l-2.02-18.07-3.89,7.2v-11.38l1.08-1.8h8.93l6.55,38.66h-8.57l-1.37-8.57h-6.62,0ZM37.5,48.7c-.36,1.73-1.08,3.17-2.02,4.46v-11.74c1.44,1.3,2.23,3.1,2.23,5.26v.94c-.14.43-.22.79-.22,1.08h.01ZM55.36,40.93l-19.87,33.12v3.74h5.62l4.82-8.57h9.43v-6.05h-5.9l5.9-10.87v-11.38h0ZM35.49,53.17c-.86,1.15-2.02,2.09-3.31,2.81-1.01.5-2.38,1.01-4.18,1.44,1.58.43,2.74.79,3.46,1.22,2.38,1.37,3.6,3.24,3.6,5.62v.86c-.14.43-.22.79-.22,1.08-.79,3.67-2.66,6.55-5.47,8.64-1.87,1.44-4.03,2.3-6.41,2.74v-6.41c.36-.22.79-.43,1.15-.65,1.37-.86,2.3-2.3,2.74-4.25.14-.5.14-1.01.14-1.44,0-1.51-.58-2.59-1.8-3.24-.65-.36-1.37-.58-2.23-.72v-5.98c1.58-.07,2.88-.43,3.82-1.08,1.37-.94,2.23-2.38,2.66-4.46.07-.43.14-.86.14-1.22,0-1.3-.5-2.16-1.51-2.66s-2.3-.72-4.03-.72h-1.08v-5.47h5.83c2.59,0,4.75.65,6.41,1.94.07.07.14.14.29.22v11.74h0ZM35.49,74.05l-2.23,3.74h2.23v-3.74ZM22.96,77.58c-1.01.14-1.94.22-3.02.22H3.59l8.35-38.52h11.02v5.47h-4.46l-2.23,10.22h5.83c.29,0,.58,0,.86-.07v5.98c-.79-.14-1.58-.22-2.45-.22h-5.47l-2.38,11.23h6.26c1.51,0,2.88-.29,4.03-.72v6.41h0Z"/>
  <polygon class="st0" points="375.9 27.46 342.5 53.17 368.2 53.17 375.9 27.46"/>
  <polygon class="st1" points="359.7 85.28 341.2 58.78 365.61 58.78 359.7 85.28"/>
  <polygon class="st0" points="386.99 2.55 423.5 53.46 374.61 53.67 386.99 2.55"/>
  <polygon class="st1" points="358.84 110.12 420.9 59.22 373.6 59 358.84 110.12"/>
</svg>