<?xml version="1.0" encoding="UTF-8"?>
<svg id="a" data-name="Capa 1" xmlns="http://www.w3.org/2000/svg" viewBox="0 0 117.96 13.26">
  <g>
    <path d="M14.56,8.03l-7.03,3.53c-.09.04-.19.04-.28,0L.19,8.02c-.23-.11-.23-.44,0-.55l3.34-1.67,3.72,1.86c.07.04.16.04.23,0l3.73-1.87,3.34,1.68c.23.11.23.44,0,.55" fill="#fff"/>
    <path d="M14.66,4.08l-3.44,1.72-3.69-1.85c-.09-.04-.19-.04-.28,0l-3.72,1.85L.17,4.12c-.23-.11-.23-.44,0-.55L7.26.03c.07-.04.16-.03.23,0l7.17,3.59c.19.1.19.37,0,.46" fill="#fff"/>
    <g>
      <path d="M19.28.93h1.82v3.63h3.53V.93h1.82v9.1h-1.82v-3.76h-3.53v3.76h-1.82V.93Z" fill="#fff"/>
      <path d="M27.95,6.71c0-1.87,1.33-3.46,3.45-3.46,1.96,0,3.35,1.57,3.35,3.42,0,.18-.02.38-.04.55h-5.08c.19.8.86,1.37,1.85,1.37.6,0,1.25-.23,1.64-.73l1.18.94c-.6.86-1.67,1.36-2.8,1.36-2.01,0-3.55-1.5-3.55-3.45ZM33.01,6.01c-.1-.67-.8-1.19-1.63-1.19s-1.45.48-1.7,1.19h3.32Z" fill="#fff"/>
      <path d="M35.69,6.76c0-2.09,1.7-3.5,3.24-3.5,1.05,0,1.66.32,2.06.94v-.82h1.74v6.66h-1.78v-.69c-.46.5-1.04.82-2.02.82-1.51,0-3.24-1.34-3.24-3.41ZM41.07,6.74c0-1.01-.83-1.84-1.85-1.84s-1.84.83-1.84,1.85c0,.93.83,1.75,1.84,1.75,1.03,0,1.85-.83,1.85-1.77Z" fill="#fff"/>
      <path d="M44.6.57h1.78v9.46h-1.78V.57Z" fill="#fff"/>
      <path d="M48.89,5.12h-1.22v-1.74h1.22v-1.7h1.78v1.7h1.58v1.74h-1.58v4.92h-1.78v-4.92Z" fill="#fff"/>
      <path d="M59.67,5.81v4.22h-1.78v-3.64c0-.95-.48-1.49-1.29-1.49-.76,0-1.4.5-1.4,1.5v3.63h-1.78V3.37h1.74v.82c.46-.72,1.19-.94,1.95-.94,1.49,0,2.57.94,2.57,2.57Z" fill="#fff"/>
      <path d="M61.44,12.43l.65-1.5c.69.45,1.43.7,2.27.7,1.14,0,1.95-.63,1.95-1.81v-.48c-.46.5-1.04.82-2.02.82-1.51,0-3.24-1.33-3.24-3.41s1.7-3.5,3.24-3.5c1.05,0,1.66.32,2.06.94v-.82h1.74v6.36c0,2.2-1.41,3.52-3.66,3.52-1.1,0-2.22-.28-2.99-.83ZM66.43,6.74c0-1.01-.83-1.84-1.85-1.84s-1.84.83-1.84,1.85c0,.93.83,1.75,1.84,1.75,1.03,0,1.85-.83,1.85-1.77Z" fill="#fff"/>
    </g>
  </g>
  <text transform="translate(74.06 5.3)" fill="#fff" font-family="Manrope-Regular, Manrope" font-size="4.81" font-variation-settings="&apos;wght&apos; 400"><tspan x="0" y="0" letter-spacing="-.02em">Salud </tspan><tspan x="12.87" y="0" letter-spacing="-.03em">c</tspan><tspan x="15.36" y="0" letter-spacing="-.02em">o</tspan><tspan x="18.11" y="0" letter-spacing="-.02em">n</tspan><tspan x="20.86" y="0" letter-spacing="-.02em">ectada, </tspan><tspan x="0" y="5.92" letter-spacing="-.02em">gestión simplifi</tspan><tspan x="32.21" y="5.92" letter-spacing="-.02em">c</tspan><tspan x="34.76" y="5.92" letter-spacing="-.02em">ada.</tspan></text>
</svg>