<?xml version="1.0" encoding="UTF-8"?>
<svg id="Capa_1" xmlns="http://www.w3.org/2000/svg" version="1.1" viewBox="0 0 340.2 73.44">
  <!-- Generator: Adobe Illustrator 30.0.0, SVG Export Plug-In . SVG Version: 2.1.1 Build 123)  -->
  <defs>
    <style>
      .st0 {
        fill: #002ee5;
      }

      .st1 {
        fill: #00ff92;
      }
    </style>
  </defs>
  <path class="st0" d="M74.76,43.58l-34.27,17.2c-.42.21-.93.21-1.34,0L4.72,43.56c-1.11-.56-1.11-2.13,0-2.69l16.29-8.13,18.15,9.08c.35.19.76.19,1.11,0l18.19-9.11,16.29,8.18c1.11.56,1.11,2.13,0,2.69"/>
  <path class="st1" d="M75.22,24.35l-16.75,8.39-17.98-9.04c-.42-.21-.93-.21-1.34,0l-18.12,9.04L4.63,24.54c-1.11-.56-1.11-2.13,0-2.69L39.16,4.61c.35-.19.76-.16,1.11,0l34.95,17.5c.93.49.93,1.78,0,2.25"/>
  <g>
    <path class="st0" d="M97.73,9.03h8.89v17.68h17.22V9.03h8.89v44.33h-8.89v-18.3h-17.22v18.3h-8.89V9.03Z"/>
    <path class="st0" d="M139.96,37.19c0-9.1,6.48-16.86,16.81-16.86,9.56,0,16.32,7.66,16.32,16.66,0,.9-.08,1.84-.2,2.66h-24.73c.95,3.89,4.18,6.69,9.02,6.69,2.95,0,6.07-1.1,7.99-3.56l5.74,4.59c-2.95,4.18-8.12,6.64-13.66,6.64-9.79-.03-17.3-7.33-17.3-16.81ZM164.61,33.75c-.49-3.28-3.89-5.82-7.92-5.82s-7.05,2.33-8.28,5.82h16.19Z"/>
    <path class="st0" d="M177.67,37.39c0-10.17,8.28-17.07,15.78-17.07,5.12,0,8.07,1.56,10.04,4.59v-3.97h8.48v32.44h-8.69v-3.36c-2.25,2.46-5.05,3.97-9.84,3.97-7.38-.03-15.78-6.51-15.78-16.6ZM203.89,37.32c0-4.92-4.02-8.94-9.02-8.94s-8.94,4.02-8.94,9.02c0,4.51,4.02,8.53,8.94,8.53,5,0,9.02-4.02,9.02-8.61Z"/>
    <path class="st0" d="M221.11,7.26h8.69v46.1h-8.69V7.26Z"/>
    <path class="st0" d="M242.02,29.4h-5.94v-8.48h5.94v-8.28h8.69v8.28h7.71v8.48h-7.71v23.98h-8.69v-23.98Z"/>
    <path class="st0" d="M294.55,32.81v20.55h-8.69v-17.76c0-4.64-2.33-7.25-6.28-7.25-3.69,0-6.84,2.46-6.84,7.3v17.68h-8.69V20.92h8.48v3.97c2.25-3.48,5.82-4.59,9.51-4.59,7.25,0,12.5,4.59,12.5,12.5Z"/>
    <path class="st0" d="M303.15,65.04l3.15-7.3c3.36,2.18,6.97,3.41,11.07,3.41,5.53,0,9.51-3.07,9.51-8.81v-2.33c-2.25,2.46-5.05,3.97-9.84,3.97-7.38,0-15.78-6.48-15.78-16.6s8.28-17.07,15.78-17.07c5.12,0,8.07,1.56,10.04,4.59v-3.97h8.48v31c0,10.74-6.89,17.14-17.83,17.14-5.36.03-10.81-1.36-14.58-4.02ZM327.47,37.32c0-4.92-4.02-8.94-9.02-8.94s-8.94,4.02-8.94,9.02c0,4.51,4.02,8.53,8.94,8.53,5,0,9.02-4.02,9.02-8.61Z"/>
  </g>
</svg>