<?xml version="1.0" encoding="UTF-8"?>
<svg id="Capa_1" xmlns="http://www.w3.org/2000/svg" version="1.1" viewBox="0 0 1205 283.68">
  <!-- Generator: Adobe Illustrator 30.0.0, SVG Export Plug-In . SVG Version: 2.1.1 Build 123)  -->
  <defs>
    <style>
      .st0 {
        opacity: .63;
      }

      .st0, .st1, .st2 {
        fill: #cbcbcc;
      }

      .st2 {
        opacity: .4;
      }
    </style>
  </defs>
  <g>
    <path class="st1" d="M870.63,101.27c0-17.01-12.6-26.68-34.84-26.68h-35.34v82.27h20.01v-28.79h15.44l13.71,28.79h21.87l-16.06-32.69c10.13-4.67,15.2-12.23,15.2-22.9ZM835.67,112.27h-15.2v-21.68h15.32c8.9,0,13.71,3.78,13.71,10.67s-5.06,11.01-13.84,11.01Z"/>
    <rect class="st1" x="895.97" y="74.59" width="20.01" height="82.27"/>
    <path class="st1" d="M978.09,74.59h-32.58v82.27h33.74c24.55,0,41.65-16.9,41.65-40.91s-17.57-41.36-42.81-41.36ZM977.39,140.18h-13.03v-48.92h11.87c15.59,0,24.78,9.12,24.78,24.68s-8.73,24.24-23.62,24.24Z"/>
    <path class="st1" d="M1196.05,120.06c-1.38-2.38-3.06-4.29-4.8-5.82-4.08-3.58-9.32-5.55-14.72-6.03-13.72-1.23-23.61-5.59-24.88-11.72-.65-3.14,1.17-5.74,1.35-5.99,4.16-5.74,17.54-5.33,21.55,1.2,1.49,2.42,1.36,5.14,1.15,6.68h19.89c0-15.56-9.7-25.35-29.34-25.35s-33.61,10.56-33.61,25.46c0,13.45,8.4,21.79,24.71,24.79l14.63,2.56c6.05,1.11,8.4,3.45,8.4,8,0,5.23-5.68,8.45-14.7,8.45s-16.12-7.22-16.12-13.23h-19.89c0,15.45,12.18,29.24,32.56,29.24s37.01-10.34,37.01-26.24c0-5.77-2.46-10.76-3.19-12Z"/>
    <polygon class="st1" points="1048.55 156.86 1106.62 156.86 1106.62 140.18 1068.56 140.18 1068.56 123.17 1068.56 121.78 1105.11 121.78 1105.11 107.26 1068.56 107.26 1068.56 91.26 1106.62 91.26 1106.62 74.59 1048.55 74.59 1048.55 156.86"/>
  </g>
  <g>
    <path class="st1" d="M723.32,48.29c.71-6.01,2.37-20.09-5.52-25.05-3.35-2.11-8.2-2.98-14.44-2.62-3.4.2-9.73.57-12.05,4.72-1.29,2.31-.79,4.8-.57,5.85,1.76,8.81-6.91,26.87-21.3,56.83-.06.15-6.37,14.96-16.72,26.52-.24.26-.47.54-.71.82l-.15.17c-1.72,2.01-2.96,3.21-4.15,3.34-1.21.13-2.3-.87-2.66-1.2-4.71-4.29.95-21.28,3.67-29.45.95-2.85,1.36-3.87,1.88-5.16.55-1.36,1.23-3.05,2.78-7.47,3.51-10,6.11-18.68,7.39-28.52,1.16-8.93.3-11.45-.68-13.26-3.41-6.32-10.98-7.96-13.47-8.5-5.43-1.18-10.37-.63-14.69,1.62-.81.42-1.59.91-2.34,1.44-1.73,1.24-2.59,3.33-2.27,5.45.08.51.16,1.06.23,1.64,1.33,10.13,1.16,21.02-13.82,60.46-1.59,4.2-7.86,17.59-15.51,23.92-3.46,2.86-6.42,3.56-9.06,2.14-2.18-1.18-3.22-3.02-1.71-8.56,1.39-5.13,2.99-10.31,4.55-15.4l.17-.55c.74-2.42,1.49-4.84,2.21-7.27.82-2.75,1.49-4.82,1.82-5.84l.18-.57c2.46-7.81,5.26-16.67,5.47-25.62.18-7.85.38-15.98-5.43-21.43-6.89-6.48-17.36-4.69-20.4-3.99-6.87,1.59-11.18,5.62-13.49,7.8-5.82,5.46-9.3,12.56-13.33,20.77-.35.71-.65,1.35-.78,1.63-.71,1.54-1.38,3.09-2,4.66.54-5.03,1.04-11.43.93-16.85-.03-1.5-.09-4.28-1.66-7.25-1.81-3.43-4.58-5.17-5.63-5.82-4.44-2.77-10.09-3.44-16.81-2-11.12,2.39-17.95,11.2-23.44,18.27-6.64,8.55-11.86,18.21-15.58,28.8.8-9.32,1.47-18.7,2-27.96.21-3.56.47-7.98-2.41-11.58-4.48-5.6-13.72-5.61-18.82-5.12-3.06.29-5.69.55-8.05,1.91-5.78,3.33-5.68,10.83-5.54,21.2.09,7.08.21,15.88-1.72,25.29-3.72,18.2-13.5,31.05-19.33,38.73-2.52,3.32-5.26,6.54-8.14,9.58-2.64,2.79-5.98,2.35-8.04,1.13-2.03-1.21-3.98-3.9-2.81-7.51,6.41-19.73,14.12-46.58,14.51-62.46.3-12.03-3.52-16.82-5.82-18.6-4.37-3.38-10.16-3.07-12.95-2.92-7.3.39-12.43,3.63-14.89,5.19-10.47,6.62-16.77,18.03-20.15,26.16.28-4.09.06-8.13-.66-12.06-.89-4.83-1.59-8.64-4.68-11.68-3.64-3.58-9.18-4.9-16.45-3.92-6.71.9-14.44,5.85-22.36,14.3-7.41,7.91-13.38,17.19-17.79,27.65.11-1.48.23-3.14.36-4.94.28-3.64.53-6.75.75-9.41,1.06-12.94,1.28-15.64-1.01-18.75-3.09-4.2-8.76-6.33-17.09-6.32-2.88,0-9.64,0-13.47,4.4-3.83,4.38-2.86,10.95-2.35,14.48l.09.64c2.58,18.25-4.47,35.27-9.13,46.55-6.17,14.9-18.5,28.27-25.7,30.94-1.34.5-2.41.57-3.1.22-4.37-2.21-1.16-23.17,4.51-39.72,2.19-6.38,4.24-13.36,8.32-27.26,1.97-6.72,4.01-13.67.33-18.98-1.91-2.75-4.59-3.93-6.96-4.97-5.63-2.48-11.95-2.48-18.78-.02-2.5.9-5.33,1.92-7.27,4.65-2.31,3.25-2.08,6.99-1.98,8.55.67,11.43-10.92,39.59-19.52,54.75-9.09,16.01-21.38,29.9-23.94,28.56-3.56-1.85.56-32.69,12.33-59.28l.32-.72c2.57-5.76,7.34-16.47,2.73-24.85-1.66-3.02-4.38-5.48-8.07-7.3-9.73-4.8-19.8.18-20.91.76-1.61.84-3.13,1.88-4.53,3.1-.24.21-.32.55-.2.84.8,1.89,1.4,3.86,1.8,5.86,1.58,7.92-.36,14.93-2.25,19.38-3.16,6.6-18.63,40.8-12.68,65.55,1.24,5.13,3.53,14.68,11.94,21.1,1.54,1.18,5.65,4.31,11.63,5.13,12.66,1.72,22.7-8.39,26.98-12.71,4.95-5,8.72-10.97,11.24-17.79.43,3.39,1.37,6.65,2.79,9.74,3.44,7.43,10,13.98,16.34,16.31,11.69,4.29,30.22-3.68,41.49-23.74-.24,3.21.08,6.4.98,9.42.95,3.2,1.78,5.97,4.38,8.18,4.01,3.42,9.88,3.58,17.32,3.78.16,0,.31,0,.5,0,.18,0,4.44-.12,8.09-3.58,2.47-2.36,3.56-6.31,3.23-11.88-.57-9.52,2.69-19.12,9.19-38.26,5.37-15.82,13.73-27.5,21.82-38.81,2.49-3.48,5.11-6.91,7.79-10.21.43-.53.97-.33,1.13-.26.33.16.65.52.55,1.07-2.08,10.87-4.11,20.73-5.91,29.43-4.63,22.48-7.97,38.73-7.89,50.84,0,.45-.03,1-.07,1.61-.17,2.93-.43,7.36,2.29,11.05,4.31,5.83,12.87,6.2,16.09,6.34,3.75.16,8.41.37,11.94-2.63,4.24-3.59,4.38-9.73,4.45-12.2.54-20.83,12.44-56.02,20.46-72.39,3.26-6.65,7.41-13.04,12.33-19,.74-.89,1.75-.81,2.4-.47.66.35,1.3,1.15.97,2.28l-6.91,23.55c-3.41,10.21-8.83,29.98-6.85,47.65.87,7.75,2.39,13.85,6.98,18.39,4.36,4.32,9.58,5.53,11.3,5.93,7.71,1.79,15.87-.1,23.61-5.48,3.66-2.55,5.87-5.22,8.11-7.92,2.75-3.32,5.12-6.97,7.06-10.85-.26,2.55-.28,5.13-.05,7.7.35,3.91.56,6.27,2.19,8.79,2.93,4.53,8.67,6.84,17.07,6.89,3.55.02,7.58.04,10.77-2.66,4.59-3.89,4.4-11.03,4.33-13.72v-.27c-.58-24.05,17.02-58.25,28.24-74.15,3.58-5.07,7.69-9.94,12.23-14.5-1.29,5.13-2.5,10.37-3.59,15.63-.57,2.75-.79,4.03-1.16,6.23-.45,2.67-1.14,6.7-3,16.51-1.44,7.59-2.93,15.43-4.24,23.19-.22,1.32-.46,2.64-.71,4.05-1.37,7.64-2.79,15.54-1.68,23.68,1.63,11.97,11.67,12.9,18.99,13.58l.69.07c3.69.35,6.79-.35,9.21-2.09,4.32-3.1,5.12-8.64,5.44-10.8,2.84-19.5,13.5-56.51,18.95-70.33,3.31-8.4,7.98-16.49,13.86-24.05.67-.86,1.62-.81,2.23-.52.62.3,1.25,1.02.99,2.07-2.66,11.11-4.34,17.85-4.97,20.02,0,0-1.08,3.68-1.16,3.93-.44,1.51-.88,3.03-1.34,4.56-4.22,14.33-8.59,29.15-6.96,44.91.53,5.16,1.98,12.72,8.41,18.71,1.67,1.56,7.81,6.67,16.54,6.78.1,0,.2,0,.3,0,13.18,0,22.38-11.62,27.9-18.6,2.11-2.67,4.03-5.55,5.66-8.56.22,3.04.97,5.93,2.23,8.6,3.65,7.73,11.55,13.33,20.13,14.25,8.29.89,16.62-2.7,23.48-10.11,5.63-6.08,9.36-11.62,13.3-19.77,1.72-3.57,3.24-7.23,4.55-10.97-.45,2.6-.92,5.2-1.42,7.79-8.05,41.76-18.4,59.6-26.52,70.49-4.49,6.02-10.12,12.27-17.77,12.95-2.24.21-7.96.2-12.46-4.04-2.38-2.25-3.88-5.2-4.46-8.78-.26-1.62-1.41-2.85-3-3.21-1.61-.36-3.19.25-4.13,1.62-1.62,2.35-2.9,4.89-3.8,7.55-4.2,12.4,1.09,23.06,2.81,26.03.77,1.33,7.95,13.09,21.5,15.44,1.59.28,3.15.4,4.67.4,10.24,0,18.6-5.64,22.46-8.24,32.43-21.89,54.66-82.13,66.07-179.04l-.73-.09h0s.75-.06.75-.06Z"/>
    <path class="st1" d="M151.61,29.28c-3.43-3.89-7.51-7.01-12.1-9.28-7.48-3.7-14.67-4.24-19.37-4.05-2.28.09-4.14,1.81-4.43,4.09-.23,1.82-.52,3.97-.86,6.35-3.36,23.49-8.68,45.61-18.37,76.32-15.89,50.31-24.19,62.57-36.8,71.02-4.54,3.04-7.27,3.95-9.14,3.06-9.13-4.36-1.53-50.42,10.26-91.56.91-3.16,1.85-6.31,2.77-9.42,6.18-20.7,12.02-40.25,2.75-49.33-2.16-2.12-5.58-4.07-9.62-5.49-9.72-3.43-18.86-1.35-24.82,1-.85.34-1.46,1.12-1.57,2.04-.11.91.27,1.76,1,2.28.09.07.19.12.3.18.09.05.23.13.26.17,6.65,11.56,2.22,30.09-2.9,51.55-.54,2.25-1.08,4.52-1.61,6.8-1.03,3.68-2.05,7.29-3.04,10.81-13.13,46.54-22.62,80.17-7.17,96.85,2.3,2.48,7.18,6.82,14.09,8.01,16.33,2.84,39.28-10.23,52.29-36.94-1.69,7.1-4.29,18.72-6.86,33.52-4.01,23.07-2.1,29.34.39,34.2,4.87,9.49,14.43,16.54,24.94,18.4,1.96.35,3.94.52,5.92.52,3.38,0,6.78-.51,10.16-1.52.92-.28,1.62-1,1.87-1.93.25-.94,0-1.92-.66-2.63-1.51-1.61-2.74-3.36-3.66-5.22-2.92-5.9-2.92-13.18-2.92-20.89,0-25.27,6.2-54.14,6.26-54.43,5.09-23.45,6.86-33.23,8.15-40.37,1.26-6.99,1.96-10.84,4.83-22.08,5.74-22.53,12.67-45.09,20.61-67.04.62-1.72.27-3.63-.93-4.99Z"/>
  </g>
  <path class="st1" d="M170.15,258.12c.15-.04.25-.07.38-.11-.13.04-.25.07-.38.11Z"/>
  <path class="st1" d="M582.08,185.6c-.41-.57-1.42-1.59-4.11-1.9-50.52-.13-94.27.52-129.55,1.35,0,0-170.17,3.99-280.33,36.21-3.4,1.17-7.04,2.6-10.85,4.39-2.39,1.12-4.64,2.28-6.77,3.47-7.4,4.13-9.33,14.11-3.67,20.42,1.23,1.37,2.62,2.73,4.21,4.04,2.64,2.17,5.28,3.74,7.64,4.89,1.61.72,2.98.94,3.89,1,2,.14,3.71-.31,6.44-1.01.43-.11.82-.22,1.16-.32.13-.04.25-.07.38-.11.19-.06.4-.12.55-.17h0c9.08-2.7,19.31-5.62,30.54-8.64,22.13-5.94,110.92-29.11,234.85-39.03,36.46-2.92,79.6-4.96,128.27-4.56,5.33.04,10.36-2.52,13.46-6.86,4.16-5.82,5.66-10.68,3.89-13.16Z"/>
  <path class="st0" d="M170.52,258.01c.19-.06.36-.11.55-.16h0c-.15.05-.36.11-.55.16Z"/>
  <path class="st2" d="M170.52,258.01c.19-.06.36-.11.55-.16h0c-.15.05-.36.11-.55.16Z"/>
</svg>